<?xml version="1.0" encoding="UTF-8" standalone="no"?>
<svg
   fill="#ffffff"
   viewBox="0 0 50 50"
   width="50"
   height="50"
   version="1.1"
   id="svg1"
   xmlns="http://www.w3.org/2000/svg"
   xmlns:svg="http://www.w3.org/2000/svg">
  <defs
     id="defs1" />
  <path
     d="M 19.810634,0 C 8.8811001,0 0,8.6788259 0,19.359431 c 0,10.680604 8.8811001,19.35943 19.810634,19.35943 4.324472,0 8.321194,-1.361209 11.58048,-3.66548 L 46.722505,50 50,46.797153 34.850692,31.957295 C 37.82775,28.567616 39.621267,24.168149 39.621267,19.359431 39.621267,8.6788259 30.740167,0 19.810634,0 Z m 0,2.2775801 c 9.668609,0 17.479971,7.6334519 17.479971,17.0818509 0,9.448398 -7.811362,17.08185 -17.479971,17.08185 -9.668609,0 -17.4799712,-7.633452 -17.4799712,-17.08185 0,-9.448399 7.8113622,-17.0818509 17.4799712,-17.0818509 z"
     id="path1"
     style="stroke-width:1.15199" />
</svg>
